<svg width="70" height="57" viewBox="0 0 70 57" fill="none" xmlns="http://www.w3.org/2000/svg">
<g clip-path="url(#clip0_32_79)">
<path d="M26.9095 17.8789C26.9095 17.8789 14.6353 15.2517 14.0513 15.4399C13.4663 15.6315 10.366 17.7855 8.73155 22.7864C7.09709 27.7873 8.82929 31.1467 9.3886 31.3378C9.95225 31.5297 22.7542 34.3006 22.7542 34.3006C22.7542 34.3006 23.6794 37.3444 27.0538 40.0315C30.4282 42.7185 35.419 45.1159 39.8506 45.9309C43.8282 46.6618 44.8295 45.5842 45.5587 45.0747C46.2879 44.5652 46.3917 43.9296 46.3917 43.9296C46.3917 43.9296 52.1771 44.7228 55.1031 43.2536C58.8224 41.3811 59.8107 37.563 61.0995 33.3839C62.411 29.1311 64.0493 24.9553 59.8661 20.9713C56.2099 17.4926 49.0521 16.7062 45.5459 16.1523C42.0396 15.5985 36.0886 15.5067 33.6557 15.8407C28.8627 16.4971 26.9095 17.8789 26.9095 17.8789Z" fill="#DC190D"/>
<path d="M17.6497 18.5674C15.6028 18.1138 13.9853 18.4517 12.4161 23.6149C10.8469 28.7782 11.9081 29.3763 13.9931 29.8563C15.6209 30.2329 16.8453 29.868 17.3833 27.8093C17.7665 26.3422 18.8367 23.0367 19.4661 21.2202C19.8095 20.2263 19.7412 19.0264 17.6497 18.5674Z" fill="#FFC402"/>
<path d="M26.9095 17.8789C26.9095 17.8789 24.5113 20.9578 23.0079 25.6233C21.4732 30.3906 22.7498 34.2997 22.7498 34.2997L19.517 33.5772C19.517 33.5772 18.6305 30.1533 20.1868 25.1068C21.7431 20.0603 24.1795 17.3062 24.1795 17.3062L26.9095 17.8789Z" fill="#6B0E0E"/>
<path d="M49.5032 36.772C48.2018 37.2669 48.736 38.6317 48.7442 39.4428C48.7525 40.2539 48.2889 41.6525 48.1217 41.671C47.9545 41.6895 48.068 39.7503 45.8129 38.2513C44.0715 37.0908 41.5785 36.8121 40.7348 36.7203C39.5165 36.5867 37.6361 36.7597 37.2484 38.0169C36.7773 39.5446 38.4085 40.03 39.2447 40.2508C40.0808 40.4716 44.1298 40.8066 45.5433 42.0129C46.7786 43.0639 46.3906 43.9331 46.3906 43.9331C46.3906 43.9331 47.2365 44.0328 47.8065 44.0693C48.3765 44.1059 48.9922 44.1293 48.9922 44.1293C48.9922 44.1293 50.2876 42.9506 51.1164 42.0434C51.9452 41.1362 52.7309 39.3064 51.9709 37.8961C51.3533 36.7571 49.9059 36.6182 49.5032 36.772Z" fill="#6B0E0E"/>
</g>
<defs>
<clipPath id="clip0_32_79">
<rect width="47.0403" height="56.7168" fill="white" transform="matrix(-0.294689 0.955594 -0.980282 -0.197607 69.4608 11.2076)"/>
</clipPath>
</defs>
</svg>
