<svg width="62" height="55" viewBox="0 0 62 55" fill="none" xmlns="http://www.w3.org/2000/svg">
<g clip-path="url(#clip0_32_68)">
<path d="M37.5209 37.4531C37.5209 37.4531 48.2577 40.129 48.7745 39.9571C49.2923 39.7818 52.0577 37.7654 53.5889 33.0089C55.1202 28.2523 53.6616 25.0189 53.1737 24.8288C52.6821 24.6378 41.4842 21.8174 41.4842 21.8174C41.4842 21.8174 40.7288 18.8965 37.8144 16.2834C34.8999 13.6703 30.5594 11.3122 26.6804 10.4736C23.1987 9.72156 22.2983 10.7377 21.6478 11.2148C20.9973 11.6918 20.8941 12.2977 20.8941 12.2977C20.8941 12.2977 15.8249 11.4618 13.2256 12.8262C9.92151 14.5653 8.98055 18.2004 7.7687 22.1763C6.53545 26.2224 5.01642 30.1904 8.61706 34.0538C11.7642 37.4271 18.0396 38.275 21.1104 38.8516C24.1812 39.4281 29.4093 39.596 31.5536 39.3097C35.7782 38.7471 37.5209 37.4531 37.5209 37.4531Z" fill="#DC0D28"/>
<path d="M37.7595 38.0629C37.7595 38.0629 48.4963 40.7388 49.0131 40.5669C49.5308 40.3916 52.2962 38.3752 53.8275 33.6186C55.3588 28.8621 53.9002 25.6287 53.4123 25.4386C52.9206 25.2475 41.7228 22.4272 41.7228 22.4272C41.7228 22.4272 40.9674 19.5062 38.053 16.8932C35.1385 14.2801 30.798 11.9219 26.919 11.0834C23.4373 10.3313 22.5369 11.3475 21.8864 11.8245C21.2359 12.3016 21.1327 12.9075 21.1327 12.9075C21.1327 12.9075 16.0635 12.0715 13.4642 13.436C10.1601 15.1751 9.21914 18.8102 8.00728 22.7861C6.77404 26.8322 5.25501 30.8002 8.85564 34.6635C12.0028 38.0369 18.2782 38.8848 21.349 39.4613C24.4198 40.0379 29.6478 40.2058 31.7922 39.9195C36.0168 39.3569 37.7595 38.0629 37.7595 38.0629Z" fill="#DC0D28"/>
<path d="M45.6715 36.92C47.4618 37.3811 48.8897 37.08 50.3667 32.1675C51.8436 27.2549 50.9224 26.6691 49.0992 26.1823C47.6758 25.8005 46.5928 26.1327 46.081 28.0926C45.7164 29.4893 44.7132 32.6334 44.1256 34.3607C43.805 35.3058 43.8422 36.4533 45.6715 36.92Z" fill="#FFC402"/>
<path d="M37.5209 37.4531C37.5209 37.4531 39.6869 34.5434 41.0965 30.1056C42.5357 25.5709 41.488 21.8183 41.488 21.8183L44.3153 22.5523C44.3153 22.5523 45.0294 25.836 43.566 30.6372C42.1026 35.4384 39.9092 38.0372 39.9092 38.0372L37.5209 37.4531Z" fill="#950D19"/>
<path d="M18.0239 19.0952C19.1769 18.6398 18.7334 17.3286 18.7416 16.5534C18.7497 15.7782 19.1837 14.4481 19.3309 14.4326C19.4782 14.4172 19.3416 16.2686 21.295 17.7314C22.8033 18.8638 24.989 19.1638 25.7287 19.2628C26.7968 19.407 28.4525 19.267 28.8171 18.0709C29.2601 16.6175 27.8358 16.1316 27.1052 15.9094C26.3745 15.6871 22.8226 15.3124 21.6033 14.1407C20.5376 13.1198 20.8951 12.2944 20.8951 12.2944C20.8951 12.2944 20.1537 12.1878 19.6534 12.1451C19.1531 12.1025 18.6126 12.0719 18.6126 12.0719C18.6126 12.0719 17.4518 13.1807 16.7062 14.0364C15.9606 14.8921 15.2354 16.6299 15.8766 17.9877C16.3977 19.0845 17.6671 19.2367 18.0239 19.0952Z" fill="#950D19"/>
</g>
<defs>
<clipPath id="clip0_32_68">
<rect width="44.7086" height="49.9791" fill="white" transform="matrix(0.291557 -0.956554 0.973361 0.229279 0 43.254)"/>
</clipPath>
</defs>
</svg>
