<svg width="62" height="55" viewBox="0 0 62 55" fill="none" xmlns="http://www.w3.org/2000/svg">
<g clip-path="url(#clip0_141_9)">
<path d="M24.1619 36.9653C24.1619 36.9653 13.4251 39.6412 12.9083 39.4693C12.3905 39.294 9.62514 37.2776 8.09388 32.5211C6.56262 27.7645 8.02116 24.5311 8.50905 24.341C9.00075 24.15 20.1986 21.3296 20.1986 21.3296C20.1986 21.3296 20.954 18.4087 23.8684 15.7956C26.7829 13.1825 31.1234 10.8244 35.0024 9.98586C38.4841 9.23377 39.3845 10.25 40.035 10.727C40.6855 11.204 40.7887 11.8099 40.7887 11.8099C40.7887 11.8099 45.8579 10.974 48.4572 12.3384C51.7613 14.0775 52.7022 17.7126 53.9141 21.6885C55.1473 25.7346 56.6664 29.7026 53.0657 33.566C49.9186 36.9393 43.6432 37.7873 40.5724 38.3638C37.5016 38.9403 32.2735 39.1082 30.1292 38.822C25.9046 38.2594 24.1619 36.9653 24.1619 36.9653Z" fill="#DC0D28"/>
<path d="M23.9232 37.5751C23.9232 37.5751 13.1865 40.251 12.6697 40.0791C12.1519 39.9038 9.38649 37.8874 7.85523 33.1309C6.32397 28.3743 7.78251 25.1409 8.27041 24.9508C8.7621 24.7597 19.9599 21.9394 19.9599 21.9394C19.9599 21.9394 20.7153 19.0185 23.6298 16.4054C26.5442 13.7923 30.8847 11.4342 34.7637 10.5956C38.2454 9.84355 39.1458 10.8597 39.7963 11.3368C40.4468 11.8138 40.55 12.4197 40.55 12.4197C40.55 12.4197 45.6193 11.5837 48.2185 12.9482C51.5226 14.6873 52.4636 18.3224 53.6755 22.2983C54.9087 26.3444 56.4277 30.3124 52.8271 34.1758C49.68 37.5491 43.4046 38.397 40.3338 38.9736C37.2629 39.5501 32.0349 39.718 29.8905 39.4317C25.6659 38.8691 23.9232 37.5751 23.9232 37.5751Z" fill="#DC0D28"/>
<path d="M16.0113 36.4322C14.221 36.8933 12.7931 36.5923 11.3161 31.6797C9.83917 26.7671 10.7604 26.1813 12.5836 25.6945C14.007 25.3127 15.09 25.6449 15.6018 27.6049C15.9664 29.0015 16.9696 32.1457 17.5572 33.8729C17.8778 34.818 17.8406 35.9655 16.0113 36.4322Z" fill="#FFC402"/>
<path d="M24.1618 36.9653C24.1618 36.9653 21.9959 34.0557 20.5862 29.6178C19.147 25.0831 20.1947 21.3305 20.1947 21.3305L17.3674 22.0646C17.3674 22.0646 16.6534 25.3482 18.1168 30.1494C19.5802 34.9506 21.7735 37.5494 21.7735 37.5494L24.1618 36.9653Z" fill="#950D19"/>
<path d="M43.6589 18.6074C42.5059 18.152 42.9494 16.8408 42.9412 16.0656C42.9331 15.2905 42.4991 13.9603 42.3519 13.9448C42.2046 13.9294 42.3412 15.7808 40.3878 17.2436C38.8795 18.376 36.6938 18.676 35.9541 18.775C34.886 18.9192 33.2303 18.7792 32.8657 17.5831C32.4227 16.1297 33.847 15.6438 34.5776 15.4216C35.3083 15.1993 38.8602 14.8246 40.0795 13.6529C41.1452 12.632 40.7877 11.8066 40.7877 11.8066C40.7877 11.8066 41.5291 11.7 42.0294 11.6574C42.5297 11.6147 43.0702 11.5841 43.0702 11.5841C43.0702 11.5841 44.231 12.6929 44.9766 13.5486C45.7222 14.4043 46.4474 16.1421 45.8062 17.5C45.2851 18.5967 44.0157 18.7489 43.6589 18.6074Z" fill="#950D19"/>
</g>
<defs>
<clipPath id="clip0_141_9">
<rect width="44.7086" height="49.9791" fill="white" transform="matrix(-0.291557 -0.956554 -0.973361 0.229279 61.6827 42.7662)"/>
</clipPath>
</defs>
</svg>
