<svg width="55" height="39" viewBox="0 0 55 39" fill="none" xmlns="http://www.w3.org/2000/svg">
<path d="M33.6533 30.3556C33.6533 30.3556 44.3901 33.0315 44.9069 32.8596C45.4247 32.6843 48.1901 30.6679 49.7213 25.9113C51.2526 21.1548 49.794 17.9214 49.3061 17.7312C48.8144 17.5402 37.6166 14.7199 37.6166 14.7199C37.6166 14.7199 36.8612 11.7989 33.9468 9.18583C31.0323 6.57275 26.6918 4.21462 22.8128 3.37611C19.3311 2.62402 18.4307 3.64021 17.7802 4.11723C17.1297 4.59425 17.0265 5.20019 17.0265 5.20019C17.0265 5.20019 11.9573 4.36422 9.35802 5.72866C6.0539 7.46779 5.11294 11.1029 3.90108 15.0788C2.66784 19.1249 1.14881 23.0929 4.74944 26.9562C7.89656 30.3296 14.172 31.1775 17.2428 31.754C20.3136 32.3306 25.5416 32.4985 27.686 32.2122C31.9106 31.6496 33.6533 30.3556 33.6533 30.3556Z" fill="#4528F5"/>
<path d="M14.1562 11.9976C15.3093 11.5423 14.8658 10.231 14.8739 9.45587C14.8821 8.68072 15.316 7.35054 15.4633 7.3351C15.6106 7.31966 15.474 9.17108 17.4274 10.6339C18.9357 11.7662 21.1213 12.0662 21.861 12.1653C22.9292 12.3094 24.5849 12.1695 24.9495 10.9734C25.3925 9.51997 23.9682 9.03408 23.2376 8.81183C22.5069 8.58959 18.955 8.21487 17.7357 7.04316C16.67 6.02222 17.0275 5.19686 17.0275 5.19686C17.0275 5.19686 16.2861 5.09024 15.7858 5.04761C15.2855 5.00497 14.745 4.97432 14.745 4.97432C14.745 4.97432 13.5841 6.08315 12.8386 6.93885C12.093 7.79456 11.3678 9.53239 12.009 10.8902C12.5301 11.987 13.7994 12.1392 14.1562 11.9976Z" fill="#0D1B95"/>
<path d="M42.1723 30.2857C43.9626 30.7468 45.3905 30.4457 46.8674 25.5331C48.3444 20.6206 47.4232 20.0347 45.6 19.548C44.1766 19.1661 43.0936 19.4983 42.5818 21.4583C42.2172 22.8549 41.214 25.9991 40.6264 27.7264C40.3058 28.6714 40.343 29.819 42.1723 30.2857Z" fill="#FFC402"/>
<path d="M33.6534 30.3556C33.6534 30.3556 35.8193 27.4459 37.229 23.0081C38.6682 18.4734 37.6204 14.7208 37.6204 14.7208L40.4477 15.4548C40.4477 15.4548 41.1618 18.7385 39.6984 23.5397C38.235 28.3408 36.0416 30.9396 36.0416 30.9396L33.6534 30.3556Z" fill="#0D1B95"/>
</svg>
