<svg width="49" height="30" viewBox="0 0 49 30" fill="none" xmlns="http://www.w3.org/2000/svg">
<path d="M31.6533 27.3556C31.6533 27.3556 42.3901 30.0315 42.9069 29.8596C43.4246 29.6843 46.19 27.6679 47.7213 22.9113C49.2526 18.1548 47.794 14.9214 47.3061 14.7312C46.8144 14.5402 35.6166 11.7199 35.6166 11.7199C35.6166 11.7199 34.8612 8.79893 31.9468 6.18584C29.0323 3.57275 24.6918 1.21463 20.8128 0.376115C17.3311 -0.375974 16.4307 0.640213 15.7802 1.11724C15.1297 1.59426 15.0265 2.2002 15.0265 2.2002C15.0265 2.2002 9.95728 1.36423 7.35802 2.72866C4.0539 4.4678 3.11294 8.10288 1.90108 12.0788C0.667838 16.1249 -0.851195 20.0929 2.74944 23.9562C5.89656 27.3296 12.1719 28.1775 15.2428 28.754C18.3136 29.3306 23.5416 29.4985 25.686 29.2122C29.9106 28.6496 31.6533 27.3556 31.6533 27.3556Z" fill="#4528F5"/>
</svg>
