<svg width="502" height="354" viewBox="0 0 502 354" fill="none" xmlns="http://www.w3.org/2000/svg">
<path d="M501 151.874L461.934 137.694L288.145 255.023V281.029V307.036L341.359 268.246L394.573 229.455L501 151.874Z" fill="#626262"/>
<path d="M44.6221 159.32L1 190.663L288.145 307.036V281.029V255.023L44.6221 159.32Z" fill="#626262"/>
<path d="M288.145 255.023L461.934 137.694L204.674 44.3174L44.6221 159.32L288.145 255.023Z" fill="#626262"/>
<path d="M288.145 307.036V352L394.573 274.859L501 197.718V151.874L394.573 229.455L341.359 268.246L288.145 307.036Z" fill="#626262"/>
<path d="M288.145 307.036L1 190.663V239.154L288.145 352V307.036Z" fill="#626262"/>
<path d="M1 190.663L288.145 307.036M1 190.663V239.154L288.145 352M1 190.663L44.6221 159.32M1 190.663V166.42M501 151.874V197.718L394.573 274.859L288.145 352M501 151.874L394.573 229.455L341.359 268.246L288.145 307.036M501 151.874L461.934 137.694M501 151.874V131.597M204.674 44.3174L461.934 137.694M204.674 44.3174L44.6221 159.32M204.674 44.3174V23.1587M288.145 307.036V352M288.145 307.036V281.029M501 111.32L204.674 2M501 111.32L461.934 137.694M501 111.32V131.597M288.145 255.023L461.934 137.694M288.145 255.023L44.6221 159.32M288.145 255.023V281.029M1 142.176L204.674 2M1 142.176L44.6221 159.32M1 142.176V166.42M204.674 2V23.1587M501 131.597L288.145 281.029M501 131.597L204.674 23.1587M288.145 281.029L1 166.42M1 166.42L204.674 23.1587" stroke="white" stroke-width="2"/>
</svg>
